PathFileType	4	(X/Y/Z)	D:\TRACE\spot_10-12-23\spot_arm_body_motion_1_8-v60.trc
DataRate	CameraRate	NumFrames	NumMarkers	Units	OrigDataRate	OrigDataStartFrame	OrigNumFrames
100.00	100.00	      14	9	mm	100.00	1751	      7000
Frame#	Time	front left toe			Front right toe			aft left toe			aft right toe			Arm			FL body			FR body			AL Body			AR Body			
		X1	Y1	Z1	X2	Y2	Z2	X3	Y3	Z3	X4	Y4	Z4	X5	Y5	Z5	X6	Y6	Z6	X7	Y7	Z7	X8	Y8	Z8	X9	Y9	Z9	

1751	17.500	-143.13803	35.90801	-419.19119	358.90833	42.34547	-436.59949	-120.30864	14.84832	215.48259	362.16391	23.03937	144.83928	95.05550	772.57043	-731.08514	-10.41955	608.02118	-441.82428	142.59122	610.48401	-448.45743	24.09026	558.62274	438.45511	165.03412	555.96826	435.21542	
1752	17.510	-142.98853	36.43148	-419.40765	359.01685	42.24089	-436.47833	-120.40569	14.86130	215.33751	362.09280	23.01163	144.97224	93.83779	772.84253	-731.20825	-9.15876	608.34430	-442.64572	143.91678	611.10364	-449.25613	23.51615	558.96277	437.53168	164.94054	556.40088	435.21768	
1753	17.520	-142.79027	36.89984	-419.44135	359.13147	42.30479	-436.40475	-120.39282	14.82472	215.28055	362.10110	22.92897	145.02034	92.28815	773.20435	-731.25464	-8.11782	608.86597	-443.61453	144.07573	611.66205	-449.70462	23.24855	559.35620	436.65668	164.41034	556.43921	433.96335	
1754	17.530	-142.76045	37.15443	-419.33591	359.25122	42.48783	-436.38272	-120.63808	15.04432	215.37378	362.28970	22.73683	144.94460	90.99055	773.53668	-731.52771	-7.34098	609.03735	-444.35605	146.54158	611.51007	-450.78806	22.46685	559.70331	436.04367	164.72899	556.78662	433.22101	
1755	17.540	-142.79352	37.15348	-419.18158	359.18146	42.83000	-436.43979	-120.10352	14.75430	215.22644	362.53091	22.52798	144.81526	89.94598	773.80304	-731.48273	-6.99468	609.03424	-444.97641	146.96037	611.74493	-451.60281	24.38831	560.11896	435.03564	165.47704	557.32306	432.58377	
1756	17.550	-142.98334	37.22784	-418.95181	359.14029	43.36826	-436.38373	-119.93497	14.82790	215.29478	362.82538	22.25728	144.80750	89.53550	773.97607	-731.38812	-6.87510	609.11798	-445.87332	146.97983	612.02319	-452.23972	25.66573	560.45154	434.67432	166.93250	557.54163	431.90683	
1757	17.560	-143.22357	37.47714	-418.73279	358.96130	43.73314	-436.47739	-119.77530	15.08028	215.40758	362.96045	22.04126	144.79967	89.55461	774.21698	-731.28662	-6.94007	609.39075	-446.39584	146.86302	612.25714	-453.19351	27.47421	560.93195	433.76343	168.60065	558.06305	430.62079	
1758	17.570	-143.59882	37.70502	-418.57477	358.54089	43.92683	-436.54745	-119.74352	15.33021	215.44006	362.92520	21.83109	144.67055	89.97163	774.40265	-731.27271	-7.17978	609.63086	-447.06097	146.71767	612.62317	-454.35855	29.11120	561.12042	432.93637	170.03383	558.59137	429.21741	
1759	17.580	-144.08165	37.85385	-418.36926	358.19739	44.07803	-436.66965	-119.80350	15.42693	215.50085	362.87506	21.53597	144.46143	91.00639	774.35028	-731.32318	-7.60758	609.79224	-447.94095	145.91248	612.67749	-455.08255	30.58842	561.64178	432.20029	171.79118	559.23059	428.51294	
1760	17.590	-144.51559	37.88404	-418.24780	358.03003	44.42567	-436.60385	-119.83585	15.40588	215.53244	362.88998	21.23997	144.30864	92.27470	774.27667	-731.21466	-7.66517	609.82562	-448.56598	146.05344	612.84058	-456.36551	32.08882	561.88666	431.36981	173.53232	559.21332	427.79810	
1761	17.600	-144.71217	37.93599	-418.18323	357.64999	44.66613	-436.60849	-119.85229	15.33107	215.58691	362.87640	21.10119	144.30656	93.64644	774.17377	-731.18414	-7.54739	610.04199	-449.29663	145.89801	612.81537	-457.04004	33.24998	562.59680	430.50214	174.18565	559.45758	426.23047	
1762	17.610	-144.77974	38.15800	-418.17755	357.52380	44.76571	-436.63397	-119.97398	15.37077	215.58476	362.69751	21.18003	144.20676	95.11446	774.26184	-730.99902	-7.34959	610.58630	-450.23978	146.35573	613.14520	-458.47018	34.52450	562.78815	429.86462	175.49371	559.91504	425.32831	
1763	17.620	-144.93883	38.52642	-418.27515	357.35657	44.80000	-436.55930	-120.31329	15.44481	215.49347	362.41229	21.10272	144.40538	96.51160	774.35437	-731.01093	-6.86212	611.00751	-451.04977	146.88504	613.63953	-459.40024	35.04496	563.11469	428.82059	176.17313	559.97327	424.36642	
1764	17.630	-145.17963	38.94542	-418.35709	357.23306	44.71502	-436.51334	-120.79462	15.49607	215.41815	361.97079	21.04238	144.48213	97.56921	774.37604	-730.87518	-5.92442	611.58960	-452.17258	147.72015	613.76123	-459.96634	35.62318	563.37640	427.71078	176.36038	560.30542	423.36914	
